<svg width="79" height="78" viewBox="0 0 79 78" fill="none" xmlns="http://www.w3.org/2000/svg">
<path d="M72.0513 41.0146C68.7465 44.3195 64.6154 45.9719 59.8647 45.9719C57.2828 49.6898 53.978 53.0979 49.9502 55.1634C49.4339 55.4733 46.0258 56.6093 46.0258 56.8158C47.1618 62.8059 48.1946 67.6598 55.0108 68.8992C55.9403 69.1057 58.0058 68.8991 58.6254 69.8286C58.9353 70.2417 59.1418 74.6826 59.0385 75.4055C58.7287 78.8136 57.1796 77.8842 54.7009 77.8842C43.7537 77.8842 32.8064 77.8842 21.8592 77.8842C19.3805 77.8842 19.7936 73.4433 19.8969 71.6876C20.2068 68.1762 21.8592 69.0024 24.5443 68.486C30.6376 67.2467 32.1868 61.8764 32.8064 56.4027C40.5521 44.526 49.6404 33.4755 56.6632 21.1856C56.8697 20.2561 56.1468 19.5332 55.2173 19.4299C54.3911 19.3267 53.0485 19.2234 52.2223 19.2234C49.9502 19.1201 47.5749 19.2234 45.3028 19.2234L50.983 6.72698C55.5271 6.72698 60.0713 6.2106 64.6154 6.83025C64.822 6.83025 65.1318 7.03681 65.2351 7.14009C66.1646 8.06957 65.8548 12.6137 65.6482 13.9563V14.1629C67.6104 14.2661 69.4694 14.2661 71.3284 14.1629C73.0841 14.1629 75.0463 13.7498 76.802 13.9563C78.0413 14.0596 78.4544 14.8858 78.5577 16.0218C79.2806 24.0774 78.0413 34.5082 72.0513 40.395V41.0146ZM72.671 20.3594H65.958C65.3384 21.3922 65.7515 23.0446 65.6482 24.2839C65.3384 29.551 63.8925 33.9918 62.8598 39.0524C62.8598 39.2589 62.7565 39.672 62.8598 39.672C71.2251 37.0901 73.2906 28.2084 72.671 20.3594Z" fill="#45B64E"/>
<path d="M33.0129 35.2331C32.4965 39.2609 31.7736 43.1854 30.9474 47.1098C30.431 49.5885 29.8113 52.6867 28.9851 55.0621C28.9851 55.2686 29.0884 55.3719 28.6753 55.3719C24.8541 53.0998 21.8591 49.5885 19.4837 45.7673C8.4332 45.664 2.13337 38.2281 0.584225 27.7972C0.171121 24.6989 -0.241993 19.4319 0.171111 16.3336C0.274387 15.3008 0.790768 14.5779 1.9268 14.3713C5.43819 13.9582 9.56923 14.8877 13.0806 14.4746C13.8035 13.9582 11.9446 7.55513 14.3199 7.03875H36.9374C38.1767 5.17978 39.1062 3.01098 40.4488 1.35856C41.0684 0.532356 41.4815 0.222529 42.6176 0.119253C43.7536 0.0159769 47.3683 -0.0872992 48.401 0.119253C49.0207 0.119253 49.8469 0.842186 49.8469 1.46184C49.8469 1.87495 47.0584 8.69116 46.6453 9.62065C45.1995 12.9255 42.3077 17.2631 41.275 20.3614C41.0684 20.981 40.8619 21.6007 41.275 22.2203L41.6881 22.4269H52.2222C52.2222 22.4269 52.2222 22.9433 52.0157 23.1498C50.9829 25.3186 48.8141 28.2103 47.3683 30.2759C42.7208 37.1953 37.6603 43.7017 33.2195 50.7245L36.3177 32.961L35.8013 32.4446H23.6148C21.9624 32.7545 22.6853 35.1298 24.0279 35.1298H32.8063L33.0129 35.2331ZM13.2872 20.5679H6.05785C6.05785 25.7317 6.47095 31.4119 9.87906 35.5429C11.3249 37.2986 14.1134 39.674 16.4887 39.5707C14.2167 33.5807 13.3904 26.8677 13.2872 20.5679Z" fill="#45B64E"/>
</svg>
