<svg width="47" height="78" viewBox="0 0 47 78" fill="none" xmlns="http://www.w3.org/2000/svg">
<path d="M18.0978 62.4353C16.65 62.4353 15.4736 63.6116 15.4736 65.0594C15.4736 66.5072 16.65 67.6836 18.0978 67.6836H28.5038C29.9516 67.6836 31.1279 66.5072 31.1279 65.0594C31.1279 63.6116 29.9516 62.4353 28.5038 62.4353H18.0978Z" fill="#45B64E"/>
<path fill-rule="evenodd" clip-rule="evenodd" d="M11.6729 0C5.24826 0 0 5.24826 0 11.6729V66.3272C0 72.7517 5.24826 78 11.6729 78H35.1091C41.5336 78 46.7819 72.7517 46.7819 66.3272V11.6729C46.7819 5.24826 41.5336 0 35.1091 0H11.6729ZM7.78191 11.6729C7.78191 9.50116 9.50116 7.7819 11.6729 7.7819H15.5638V9.04873C15.5638 11.2204 17.2831 12.9397 19.4548 12.9397H27.2367C29.4084 12.9397 31.1276 11.2204 31.1276 9.04873V7.7819H35.0186C37.1903 7.7819 38.9095 9.50116 38.9095 11.6729V66.3272C38.9095 68.4988 37.1903 70.2181 35.0186 70.2181H11.5824C9.41067 70.2181 7.69142 68.4988 7.69142 66.3272V11.6729H7.78191Z" fill="#45B64E"/>
</svg>
