<svg width="55" height="69" viewBox="0 0 55 69" fill="none" xmlns="http://www.w3.org/2000/svg">
<path fill-rule="evenodd" clip-rule="evenodd" d="M6.15923 0.00012207H17.2292C24.0543 0.00012207 29.5476 5.49348 29.5476 12.3186V18.4778C29.5476 21.8903 32.2943 24.637 35.7069 24.637H41.8661C48.6912 24.637 54.1846 30.1304 54.1846 36.9555V62.8409C54.1846 66.2534 51.4379 69.0001 48.0253 69.0001H6.15923C2.74668 69.0001 0 66.2534 0 62.8409V6.15935C0 2.7468 2.74668 0.00012207 6.15923 0.00012207ZM19.7262 51.6877C19.7262 50.356 18.6441 49.1907 17.2292 49.1907C15.8142 49.1907 14.7322 50.2727 14.7322 51.6877V54.1847C14.7322 55.5164 15.8142 56.6817 17.2292 56.6817C18.6441 56.6817 19.7262 55.5996 19.7262 54.1847V51.6877ZM27.1339 41.8662C28.4656 41.8662 29.6309 42.9483 29.6309 44.3632V54.1847C29.6309 55.5164 28.5489 56.6817 27.1339 56.6817C25.7189 56.6817 24.6369 55.5996 24.6369 54.1847V44.3632C24.6369 43.0315 25.7189 41.8662 27.1339 41.8662ZM39.4524 36.9555C39.4524 35.6238 38.3703 34.4585 36.9554 34.4585C35.5404 34.4585 34.4584 35.5405 34.4584 36.9555V54.1847C34.4584 55.5164 35.5404 56.6817 36.9554 56.6817C38.3703 56.6817 39.4524 55.5996 39.4524 54.1847V36.9555Z" fill="#45B64E"/>
<path d="M34.5425 12.318C34.5425 8.15634 33.0443 4.16116 30.3809 1.08154C41.5341 3.99469 50.2735 12.7341 53.2699 23.9706C50.107 21.2239 46.1119 19.7257 42.0335 19.8089H35.8742C35.2084 19.8089 34.6257 19.2263 34.6257 18.5604V12.4012L34.5425 12.318Z" fill="#45B64E"/>
</svg>
