<svg width="79" height="70" viewBox="0 0 79 70" fill="none" xmlns="http://www.w3.org/2000/svg">
<path fill-rule="evenodd" clip-rule="evenodd" d="M25.1103 13.9615C25.1103 6.2156 31.3261 -0.000244141 39.072 -0.000244141C46.8179 -0.000244141 53.0338 6.2156 53.0338 13.9615C53.0338 21.7074 46.8179 27.9233 39.072 27.9233C31.3261 27.9233 25.1103 21.7074 25.1103 13.9615ZM53.1294 25.15C53.1294 18.9342 58.1021 13.9615 64.3179 13.9615C70.5338 13.9615 75.5064 18.9342 75.5064 25.15C75.5064 31.3659 70.5338 36.3386 64.3179 36.3386C58.1021 36.3386 53.1294 31.3659 53.1294 25.15ZM2.82886 25.15C2.82886 18.9342 7.80153 13.9615 14.0174 13.9615C20.2332 13.9615 25.2059 18.9342 25.2059 25.15C25.2059 31.3659 20.2332 36.3386 14.0174 36.3386C7.80153 36.3386 2.82886 31.3659 2.82886 25.15ZM17.9381 45.1364C22.5283 37.8686 30.5611 33.4697 39.1676 33.5653C53.0338 33.5653 64.3179 44.7539 64.3179 58.7156C64.3179 59.6719 64.3179 60.6282 64.1267 61.5845C64.031 62.4451 63.5529 63.2101 62.7879 63.6883C55.6157 67.8003 47.4873 69.9998 39.1676 69.9998C30.5611 69.9998 22.5283 67.7047 15.5474 63.6883C14.7824 63.2101 14.3043 62.4451 14.2086 61.5845C13.5392 55.8468 14.878 50.1091 18.0338 45.232L17.9381 45.1364Z" fill="#45B64E"/>
<path d="M13.3455 41.9821C9.71157 47.6241 7.99026 54.4138 8.4684 61.1078C6.26895 60.7252 4.0695 60.2471 1.87004 59.4821L1.48753 59.2908C0.722502 59.0039 0.148726 58.3345 0.0530975 57.4739V56.9957C-0.616302 49.3455 5.12141 42.5558 12.8673 41.9821C13.0586 41.9821 13.1542 41.9821 13.3455 41.9821ZM69.7662 61.1078C70.2444 54.4138 68.523 47.6241 64.8892 41.9821C72.6351 42.3646 78.564 48.8673 78.1815 56.6132C78.1815 56.8045 78.1815 56.9001 78.1815 57.0914V57.5695C78.0859 58.4302 77.5121 59.0996 76.7471 59.3864L76.3646 59.5777C74.2608 60.3427 72.0613 60.9165 69.7662 61.2034V61.1078Z" fill="#45B64E"/>
</svg>
