<svg width="63" height="68" viewBox="0 0 63 68" fill="none" xmlns="http://www.w3.org/2000/svg">
<path d="M53.6123 0C49.9953 0 47.1017 2.89361 47.1017 6.51063V61.4894C47.1017 65.1064 49.9953 68 53.6123 68H56.2648C59.8818 68 62.7754 65.1064 62.7754 61.4894V6.51063C62.7754 2.89361 59.8818 0 56.2648 0H53.6123ZM23.5508 22.1844C23.5508 18.5674 26.4444 15.6738 30.0615 15.6738H32.714C36.331 15.6738 39.2246 18.5674 39.2246 22.1844V61.4894C39.2246 65.1064 36.331 68 32.714 68H30.0615C26.4444 68 23.5508 65.1064 23.5508 61.4894V22.1844ZM0 37.9385C0 34.3215 2.89362 31.4279 6.51064 31.4279H9.16313C12.7801 31.4279 15.6738 34.3215 15.6738 37.9385V61.4894C15.6738 65.1064 12.7801 68 9.16313 68H6.51064C2.89362 68 0 65.1064 0 61.4894V37.9385Z" fill="#45B64E"/>
</svg>
