<svg width="43" height="78" viewBox="0 0 43 78" fill="none" xmlns="http://www.w3.org/2000/svg">
<path d="M33.3439 38.8561L42.5195 73.4729C43.0756 75.3498 41.9634 77.2961 40.0866 77.8522C39.2524 78.1302 38.3488 77.9912 37.5146 77.6436L24.4464 71.5961C22.5001 70.623 20.1367 70.623 18.1904 71.5961L5.05264 77.6436C3.24533 78.4778 1.15998 77.7132 0.325835 75.9754C-0.0217237 75.2107 -0.0912336 74.3071 0.117302 73.4729L9.29285 38.8561" fill="#45B64E"/>
<path d="M28.4778 41.2897L35.707 66.6615C36.0546 67.9127 35.3595 69.3029 34.1083 69.6505C33.5522 69.7895 32.9266 69.7895 32.3705 69.5114L23.473 65.4103C22.1522 64.7846 20.5535 64.7846 19.2327 65.4103L10.3352 69.5114C9.15353 70.0675 7.69379 69.5114 7.13769 68.3297C6.85965 67.7737 6.85964 67.2176 6.99867 66.6615L14.2279 41.2897" fill="black"/>
<path d="M21.3877 42.5411C33.1351 42.5411 42.6583 33.0179 42.6583 21.2705C42.6583 9.52305 33.1351 -0.00012207 21.3877 -0.00012207C9.64023 -0.00012207 0.117065 9.52305 0.117065 21.2705C0.117065 33.0179 9.64023 42.5411 21.3877 42.5411Z" fill="#45B64E"/>
<path d="M21.3878 34.5465C28.7204 34.5465 34.6646 28.6023 34.6646 21.2698C34.6646 13.9372 28.7204 7.99304 21.3878 7.99304C14.0553 7.99304 8.11108 13.9372 8.11108 21.2698C8.11108 28.6023 14.0553 34.5465 21.3878 34.5465Z" fill="black"/>
</svg>
