<svg width="158" height="25" viewBox="0 0 158 25" fill="none" xmlns="http://www.w3.org/2000/svg">
<path d="M67.4272 24.9724H71.5228V13.7312C71.5228 10.5831 73.976 7.99949 77.0711 7.78962V3.688C71.7163 3.90194 67.4272 8.3255 67.4272 13.7312V24.9724Z" fill="white"/>
<path d="M50.76 0.0163002V13.4887C50.76 19.7216 55.748 24.8115 61.9422 24.9724V20.6711C58.1197 20.5102 55.0593 17.3499 55.0593 13.4887V7.99135H60.3223V3.69208H55.0593V0.0163002H50.76Z" fill="white"/>
<path d="M91.7965 3.67984C85.9527 3.67984 81.1991 8.43349 81.1991 14.2772C81.1991 20.121 85.9527 24.9765 91.7965 24.9765C93.8931 24.9765 95.9226 24.2613 97.6647 23.0979L98.2984 22.6741V24.9724H102.394V14.1326L102.386 13.9716C102.306 11.2107 101.169 8.62299 99.1827 6.6873C97.192 4.74753 94.5696 3.67984 91.7965 3.67984ZM91.7965 20.7791C88.2124 20.7791 85.2946 17.8634 85.2946 14.2772C85.2946 10.6911 88.2104 7.77536 91.7965 7.77536C95.3826 7.77536 98.2984 10.6911 98.2984 14.2772C98.2984 17.8634 95.3826 20.7791 91.7965 20.7791Z" fill="white"/>
<path d="M107.785 24.9724H111.881V7.3434H107.785V24.9745V24.9724Z" fill="white"/>
<path d="M132.471 24.9724H136.566V13.2829C136.566 7.98319 132.232 3.67373 126.906 3.67373C121.58 3.67373 117.246 7.98523 117.246 13.2829V24.9745H121.341V13.2829C121.341 10.2286 123.837 7.7448 126.906 7.7448C129.975 7.7448 132.471 10.2286 132.471 13.2829V24.9724Z" fill="white"/>
<path d="M142.143 7.79981H152.041L142.475 21.7388C142.037 22.3766 141.994 23.1936 142.359 23.8742C142.717 24.5405 143.414 24.9724 144.172 24.9724H144.203H157.895V20.8199L148.068 20.7995L157.638 6.90532C158.07 6.27571 158.119 5.46272 157.763 4.78625C157.406 4.10977 156.709 3.688 155.945 3.688H142.145V7.79777L142.143 7.79981Z" fill="white"/>
<path d="M109.79 0.0162964C108.382 0.0162964 107.235 1.16141 107.235 2.57141C107.235 3.98141 108.38 5.12448 109.79 5.12448C111.2 5.12448 112.343 3.97937 112.343 2.57141C112.343 1.16345 111.198 0.0162964 109.79 0.0162964Z" fill="white"/>
<path d="M0 24.9724L17.3764 11.5673L22.2849 16.4778L11.2657 24.9724H0Z" fill="#F1602F"/>
<path d="M38.3144 13.071L25.2434 0H15.5262L32.6785 17.1523L22.2849 24.9724H33.7462L43.2351 17.9917L38.3144 13.071Z" fill="#F68B1F"/>
</svg>
